<?xml version="1.0" standalone="no"?>
<!DOCTYPE svg PUBLIC "-//W3C//DTD SVG 20010904//EN"
 "http://www.w3.org/TR/2001/REC-SVG-20010904/DTD/svg10.dtd">
<svg version="1.0" xmlns="http://www.w3.org/2000/svg"
 width="134.000000pt" height="128.000000pt" viewBox="0 0 134.000000 128.000000"
 preserveAspectRatio="xMidYMid meet">
<metadata>
Created by potrace 1.16, written by Peter Selinger 2001-2019
</metadata>
<g transform="translate(0.000000,128.000000) scale(0.100000,-0.100000)"
fill="#000000" stroke="none">
<path d="M472 1264 c-62 -16 -153 -60 -216 -103 -101 -70 -203 -214 -240 -340
-22 -74 -22 -268 0 -342 59 -202 223 -367 430 -435 78 -25 104 -29 209 -29 98
0 134 4 195 23 207 65 377 227 440 423 34 104 35 262 2 366 -62 199 -214 354
-414 424 -76 26 -94 29 -218 28 -84 0 -155 -6 -188 -15z m313 -39 c86 -18 217
-81 276 -134 l44 -39 -41 -11 c-92 -25 -238 -153 -330 -291 -40 -59 -44 -62
-42 -35 1 17 -2 36 -6 43 -6 11 4 87 21 147 3 11 2 16 -3 12 -5 -5 -16 -39
-25 -75 -8 -37 -20 -66 -25 -64 -5 2 -16 32 -24 67 -8 35 -19 67 -24 72 -5 4
-6 -1 -3 -12 17 -60 27 -136 21 -147 -4 -7 -7 -26 -6 -43 2 -27 -2 -24 -42 35
-92 138 -238 266 -330 291 l-41 11 44 39 c57 51 189 116 271 133 86 19 179 19
265 1z m-494 -232 c35 -17 88 -60 151 -124 80 -80 103 -111 138 -182 34 -71
39 -90 30 -107 -8 -14 -8 -48 -1 -116 6 -53 6 -105 1 -117 -27 -70 -111 -145
-181 -161 -51 -11 -151 74 -177 152 -26 75 47 155 156 171 75 10 61 27 -27 34
-179 14 -219 68 -228 305 -5 118 -4 135 12 152 25 27 61 25 126 -7z m854 7
c16 -18 17 -34 12 -152 -9 -238 -50 -291 -228 -305 -88 -7 -102 -24 -27 -34
109 -16 182 -96 156 -171 -26 -78 -126 -163 -177 -152 -70 16 -154 91 -181
161 -5 12 -5 64 1 117 7 68 7 102 -1 116 -9 17 -4 36 30 107 35 71 58 102 138
182 134 135 232 181 277 131z m-1014 -240 c17 -140 61 -206 150 -230 l40 -11
-45 -44 c-25 -24 -48 -55 -52 -70 -17 -70 27 -155 112 -214 42 -28 55 -32 95
-29 54 6 110 41 156 99 l33 41 10 -26 c12 -33 38 -33 50 0 l10 26 33 -41 c46
-58 102 -93 156 -99 40 -3 53 1 95 29 85 59 129 144 112 214 -4 15 -27 46 -52
70 l-45 44 40 11 c52 14 100 55 122 105 18 41 39 173 39 255 l1 45 25 -49 c75
-143 70 -341 -13 -499 -99 -189 -291 -310 -512 -324 -218 -14 -453 104 -560
281 -64 107 -84 178 -85 301 -1 111 5 139 48 240 l21 50 3 -45 c1 -25 7 -83
13 -130z m547 -28 c3 -18 -1 -22 -22 -22 -19 0 -26 5 -26 18 0 39 43 43 48 4z
m12 -62 c15 -28 -4 -60 -35 -60 -31 0 -50 32 -35 60 6 12 21 20 35 20 14 0 29
-8 35 -20z m-2 -97 c8 -17 4 -96 -13 -243 -9 -81 -31 -81 -40 0 -26 228 -24
260 20 260 13 0 28 -8 33 -17z"/>
<path d="M187 983 c-4 -3 -6 -34 -5 -67 l1 -61 6 60 c5 46 10 61 23 63 27 5
107 -47 186 -122 39 -38 72 -64 72 -58 0 15 -125 129 -179 162 -43 28 -90 38
-104 23z"/>
<path d="M182 820 c0 -14 2 -19 5 -12 2 6 2 18 0 25 -3 6 -5 1 -5 -13z"/>
<path d="M186 738 c20 -123 80 -170 214 -167 l55 2 -55 7 c-104 13 -127 20
-152 48 -27 29 -48 80 -48 118 0 13 -5 26 -10 29 -7 4 -8 -8 -4 -37z"/>
<path d="M490 761 c0 -5 5 -13 10 -16 6 -3 10 -2 10 4 0 5 -4 13 -10 16 -5 3
-10 2 -10 -4z"/>
<path d="M320 439 c0 -5 5 -7 10 -4 6 3 10 8 10 11 0 2 -4 4 -10 4 -5 0 -10
-5 -10 -11z"/>
<path d="M280 394 c-13 -23 -12 -30 10 -72 25 -46 107 -119 119 -106 3 4 -1 9
-9 12 -8 3 -37 27 -64 53 -47 47 -48 51 -44 94 3 25 5 45 3 45 -1 0 -8 -12
-15 -26z"/>
<path d="M352 388 c-28 -28 -7 -78 33 -78 12 0 26 5 33 12 28 28 7 78 -33 78
-12 0 -26 -5 -33 -12z m66 -30 c2 -19 -2 -28 -18 -33 -37 -12 -64 27 -38 53
21 21 53 10 56 -20z"/>
<path d="M1019 961 c-54 -34 -179 -148 -179 -163 0 -6 33 20 73 58 78 75 158
127 185 122 13 -2 18 -18 23 -63 l6 -60 -1 65 c-1 65 -1 65 -31 68 -19 1 -46
-8 -76 -27z"/>
<path d="M1122 820 c0 -14 2 -19 5 -12 2 6 2 18 0 25 -3 6 -5 1 -5 -13z"/>
<path d="M1116 768 c-2 -7 -9 -35 -15 -63 -21 -87 -51 -107 -191 -125 l-55 -7
55 -2 c134 -3 194 44 213 167 7 38 1 60 -7 30z"/>
<path d="M807 763 c-4 -3 -7 -11 -7 -17 0 -6 5 -5 12 2 6 6 9 14 7 17 -3 3 -9
2 -12 -2z"/>
<path d="M975 440 c3 -5 8 -10 11 -10 2 0 4 5 4 10 0 6 -5 10 -11 10 -5 0 -7
-4 -4 -10z"/>
<path d="M1017 375 c5 -44 4 -47 -43 -94 -27 -26 -56 -50 -64 -53 -8 -3 -12
-8 -9 -12 9 -10 88 52 110 87 28 46 33 73 16 97 -14 20 -14 18 -10 -25z"/>
<path d="M892 388 c-15 -15 -15 -51 0 -66 28 -28 78 -7 78 33 0 27 -18 45 -45
45 -12 0 -26 -5 -33 -12z m62 -20 c15 -24 -13 -53 -43 -43 -21 6 -29 43 -14
59 12 12 45 2 57 -16z"/>
</g>
</svg>
